<?xml version="1.0" standalone="no"?>
<!DOCTYPE svg PUBLIC "-//W3C//DTD SVG 20010904//EN"
 "http://www.w3.org/TR/2001/REC-SVG-20010904/DTD/svg10.dtd">
<svg version="1.0" xmlns="http://www.w3.org/2000/svg"
 width="771.000000pt" height="324.000000pt" viewBox="0 0 771.000000 324.000000"
 preserveAspectRatio="xMidYMid meet">

<g transform="translate(0.000000,324.000000) scale(0.100000,-0.100000)"
fill="#000000" stroke="none">
<path d="M1079 2848 c-12 -13 -26 -35 -31 -50 -6 -16 -14 -28 -19 -28 -4 0 -5
-7 -2 -17 4 -10 2 -14 -5 -9 -7 4 -10 -1 -7 -14 2 -12 -2 -23 -10 -27 -8 -3
-13 -9 -10 -13 3 -4 -1 -10 -8 -13 -6 -3 -21 -20 -31 -38 -17 -28 -17 -32 -3
-26 10 4 17 2 17 -3 0 -6 -6 -10 -14 -10 -15 0 -33 -18 -38 -39 -2 -8 -11 -23
-20 -33 -10 -10 -18 -28 -18 -40 0 -12 -3 -18 -6 -15 -10 10 -40 -55 -36 -75
2 -10 7 -17 11 -16 18 2 31 -3 31 -13 0 -8 -5 -8 -15 1 -11 9 -15 10 -15 1 0
-8 -6 -6 -16 4 -14 13 -18 14 -25 3 -5 -7 -4 -14 1 -16 5 -2 6 -10 3 -18 -5
-13 -7 -13 -14 -2 -6 9 -9 7 -9 -9 0 -13 -5 -23 -11 -23 -7 0 -9 -10 -5 -25 4
-15 2 -25 -4 -25 -6 0 -8 5 -5 10 3 6 2 10 -3 10 -5 0 -14 -12 -21 -27 -10
-23 -10 -26 0 -15 16 14 29 16 29 2 0 -5 -11 -12 -25 -16 -14 -3 -22 -10 -19
-15 3 -5 1 -9 -4 -9 -14 0 -21 -37 -10 -48 7 -7 5 -18 -6 -33 -13 -19 -16 -20
-16 -6 0 9 -5 17 -11 17 -6 0 -9 -9 -6 -20 3 -11 1 -23 -4 -26 -5 -3 -9 1 -9
8 -1 19 -31 -40 -34 -66 -3 -28 -15 -48 -25 -41 -5 2 -21 -19 -36 -47 -22 -40
-24 -50 -12 -45 10 4 17 2 17 -3 0 -6 -9 -10 -19 -10 -10 0 -21 -6 -24 -14 -8
-21 4 -28 18 -10 11 15 12 15 12 0 0 -15 -4 -18 -37 -20 -8 -1 -14 -9 -14 -19
1 -9 -2 -14 -7 -12 -7 5 -34 -34 -31 -45 4 -11 -10 -40 -18 -40 -5 0 -12 -10
-16 -22 -3 -12 -15 -31 -25 -42 -11 -11 -19 -25 -19 -30 0 -6 5 -4 10 4 7 10
10 11 10 2 0 -7 -7 -15 -15 -19 -18 -6 -47 -58 -38 -67 4 -3 1 -6 -4 -6 -6 0
-23 -20 -37 -45 -13 -25 -19 -42 -13 -39 7 4 3 -2 -7 -14 -13 -15 -15 -22 -6
-22 7 0 -3 -16 -24 -36 -33 -32 -35 -39 -30 -74 4 -27 2 -45 -10 -61 -15 -21
-22 -16 -17 14 3 18 -16 4 -33 -24 -18 -30 -14 -57 4 -29 6 8 10 10 10 4 0
-18 -22 -33 -39 -26 -13 5 -14 3 -5 -9 12 -15 11 -46 -2 -57 -4 -4 -4 5 -2 21
4 21 3 25 -8 16 -12 -10 -12 -38 1 -59 3 -6 -2 -10 -13 -10 -11 0 -30 -16 -46
-40 -14 -22 -21 -39 -14 -38 7 2 12 -9 13 -28 0 -23 -4 -30 -14 -26 -11 4 -11
1 -2 -16 6 -11 16 -23 23 -25 9 -4 10 -6 1 -6 -6 -1 -19 9 -27 21 -13 18 -13
24 -1 42 21 29 19 39 -5 26 -11 -6 -18 -15 -15 -20 3 -5 1 -12 -5 -15 -8 -5
-7 -11 1 -21 6 -8 9 -18 5 -21 -4 -4 -11 -1 -15 6 -5 8 -11 9 -15 3 -3 -6 9
-16 27 -22 45 -18 56 -19 62 -10 6 9 56 3 65 -7 3 -3 -5 -3 -18 0 -15 3 -22 1
-22 -10 0 -8 4 -11 10 -8 5 3 10 1 10 -5 0 -6 4 -8 10 -5 5 3 10 2 10 -4 0 -9
43 -28 46 -20 1 2 11 -4 22 -14 15 -14 25 -15 45 -8 22 9 25 7 22 -8 -3 -14 2
-17 23 -14 22 3 23 2 8 -5 -17 -7 -15 -10 15 -22 19 -7 59 -24 89 -38 30 -14
69 -24 85 -23 23 1 26 -1 15 -9 -10 -7 -11 -10 -2 -11 21 -3 26 -4 60 -22 17
-10 32 -14 32 -11 0 4 10 -1 22 -12 19 -17 21 -17 15 -1 -8 21 -1 22 19 3 11
-11 11 -16 1 -20 -6 -4 -2 -4 10 -2 12 2 24 -1 25 -6 2 -6 18 -16 36 -24 18
-7 31 -10 28 -5 -3 4 1 8 9 8 8 0 12 -4 10 -8 -3 -3 2 -12 10 -19 8 -7 15 -9
15 -4 0 5 4 4 8 -2 13 -19 102 -54 127 -50 14 3 27 0 31 -5 3 -5 10 -7 15 -4
5 4 17 1 26 -5 17 -11 17 -11 1 -6 -12 3 -18 0 -18 -9 0 -8 7 -15 15 -15 8 0
15 -4 15 -9 0 -13 67 -34 81 -25 8 4 9 3 5 -4 -9 -15 9 -15 34 -2 13 7 21 5
31 -8 12 -15 12 -15 -1 -5 -10 7 -21 9 -30 3 -12 -7 -9 -11 10 -18 14 -5 31
-7 39 -4 9 3 12 1 7 -6 -4 -7 0 -15 11 -18 10 -3 34 -13 53 -22 19 -9 37 -17
40 -17 3 0 14 -6 26 -12 11 -7 36 -10 55 -8 19 2 28 1 22 -2 -26 -10 -12 -32
25 -40 20 -4 41 -6 45 -5 5 1 6 -2 2 -7 -3 -6 7 -14 22 -18 38 -10 40 -10 63
-12 11 0 19 -6 18 -13 -2 -6 11 -16 27 -22 17 -6 32 -14 35 -18 13 -16 63 -28
75 -18 15 12 30 -3 20 -19 -6 -11 32 -26 54 -22 8 1 10 -2 5 -10 -5 -9 -2 -10
9 -6 9 3 18 0 21 -9 3 -9 10 -13 15 -9 5 3 12 1 16 -4 3 -6 12 -8 20 -5 8 4
12 10 9 15 -3 5 2 6 10 3 9 -3 16 -10 16 -16 0 -5 -4 -7 -9 -3 -5 3 -13 0 -17
-7 -4 -7 -3 -10 1 -5 5 4 16 0 25 -8 15 -14 18 -14 30 0 7 8 10 22 6 30 -3 8
-1 15 4 15 14 0 38 52 35 78 -1 13 3 26 8 29 6 4 7 1 2 -8 -4 -8 1 -6 11 4 16
15 17 20 5 38 -9 16 -10 24 -1 33 8 8 9 6 4 -8 -5 -14 -3 -17 7 -14 8 3 14 9
14 14 1 5 6 19 13 32 7 12 10 28 6 34 -5 7 -3 8 6 3 10 -6 12 -3 8 13 -4 13
-2 20 6 19 6 -1 12 10 14 26 2 15 8 25 13 22 5 -4 9 5 9 18 0 14 7 30 15 37
20 16 19 27 -2 33 -14 4 -14 5 3 6 20 1 39 31 35 55 -1 5 3 12 9 16 6 4 13 16
15 26 2 10 4 20 5 22 2 1 3 5 4 10 1 4 17 38 35 75 18 38 30 71 27 74 -3 4 3
12 14 20 11 8 20 25 20 38 0 13 5 25 11 27 6 2 12 16 12 31 0 15 3 24 8 21 12
-7 6 39 -6 49 -5 4 1 7 15 5 14 -2 25 2 26 7 0 6 13 36 27 68 27 58 35 103 17
92 -12 -7 -12 2 0 30 8 19 9 19 9 -2 1 -27 21 -42 21 -16 0 11 6 28 14 38 8
11 12 25 9 32 -3 7 0 13 7 13 7 0 10 10 6 28 -3 15 1 38 9 52 17 29 20 19 4
-12 -6 -11 -8 -22 -6 -25 7 -7 28 34 33 65 3 15 12 32 20 39 8 6 15 14 16 17
0 17 11 46 18 46 4 0 13 19 20 43 8 23 22 55 32 71 9 16 15 33 12 38 -3 4 0 8
6 8 8 0 7 6 -1 21 -7 15 -8 24 0 32 7 7 7 16 0 30 -8 14 -8 18 0 13 6 -4 11
-2 11 3 0 6 5 11 10 11 7 0 7 -6 0 -20 -6 -11 -7 -20 -3 -20 4 0 2 -5 -5 -12
-15 -15 -16 -28 -2 -28 6 0 9 3 8 8 -1 4 12 35 30 70 17 34 32 68 32 75 0 10
26 68 100 220 10 20 14 34 8 31 -6 -4 -8 2 -3 16 5 16 4 20 -5 15 -6 -4 -22 3
-35 15 -13 12 -28 19 -33 16 -6 -3 -13 0 -15 6 -4 10 -6 10 -6 1 -1 -7 -6 -13
-13 -13 -6 0 -8 3 -5 7 10 10 -13 32 -28 27 -7 -3 -16 -1 -20 5 -3 6 -20 11
-36 11 -18 0 -28 4 -24 10 3 6 -1 10 -9 10 -18 0 -21 -16 -6 -25 15 -9 12 -25
-3 -19 -18 7 -41 -40 -40 -82 1 -28 -2 -33 -12 -24 -10 9 -13 7 -10 -7 1 -10
7 -17 12 -16 5 1 10 -4 10 -11 0 -7 -6 -13 -13 -13 -7 0 -11 5 -7 10 3 5 -3 7
-13 5 -12 -2 -24 -18 -32 -43 -7 -22 -23 -50 -37 -61 -13 -12 -22 -24 -20 -26
2 -2 -24 -5 -58 -5 -39 -1 -55 1 -42 6 19 8 19 8 0 18 -11 6 -26 8 -32 6 -7
-3 -13 0 -13 7 0 6 5 8 11 4 12 -7 3 34 -11 49 -15 16 42 107 67 107 6 0 15 5
19 12 4 7 3 8 -4 4 -7 -4 -12 -2 -12 3 0 6 5 11 11 11 23 0 1 25 -27 31 l-29
7 30 1 c17 0 36 -4 43 -11 9 -9 12 -7 12 11 0 15 4 20 13 15 7 -5 6 0 -3 11
-9 11 -10 16 -2 11 13 -8 17 6 5 18 -12 11 -12 39 -1 59 8 16 6 23 -13 38 -12
9 -29 15 -36 12 -7 -3 -13 -1 -13 5 0 5 -26 20 -57 32 -32 13 -62 27 -67 31
-5 4 -15 5 -22 2 -8 -3 -14 1 -14 11 0 19 -16 21 -23 4 -4 -8 -6 -7 -6 3 -1
22 -30 33 -37 15 -3 -8 -13 -17 -22 -21 -13 -5 -12 -2 3 15 16 18 17 23 5 30
-8 5 -18 6 -22 4 -4 -3 -8 -1 -8 5 0 12 -66 34 -80 26 -5 -3 -7 0 -4 8 3 10
-4 17 -21 21 -32 8 -50 -1 -35 -19 8 -9 4 -11 -17 -7 -24 5 -25 6 -8 18 15 11
16 16 5 29 -14 17 -35 21 -25 5 3 -5 2 -10 -4 -10 -5 0 -18 -3 -28 -6 -17 -5
-17 -5 0 6 25 16 21 27 -13 39 -18 6 -30 6 -30 0 0 -5 -4 -9 -10 -9 -5 0 -8 6
-5 13 6 18 -106 71 -117 55 -6 -10 -8 -9 -8 4 0 12 -6 16 -20 13 -11 -2 -18 0
-15 5 3 4 -11 18 -31 29 -33 20 -36 20 -30 4 3 -11 -3 -7 -17 10 -22 26 -57
37 -57 17 0 -5 6 -10 13 -10 7 0 13 -11 12 -25 0 -14 -4 -24 -10 -23 -5 2 -9
11 -8 21 2 9 -2 17 -7 17 -6 0 -10 -4 -10 -10 0 -5 -8 -10 -17 -11 -10 0 -13
-3 -6 -5 16 -7 5 -34 -13 -34 -13 0 -18 -20 -17 -58 1 -7 -4 -11 -11 -9 -13 5
-15 -70 -2 -91 5 -8 2 -10 -10 -5 -14 5 -16 3 -11 -11 4 -9 3 -15 -2 -11 -5 3
-11 2 -13 -3 -1 -4 -17 -18 -35 -30 -30 -22 -34 -22 -69 -7 -20 8 -39 13 -43
11 -7 -5 -37 83 -33 97 1 5 -2 6 -8 2 -5 -3 -10 -1 -10 4 0 6 7 11 16 11 9 0
14 7 12 19 -3 20 28 61 46 61 6 0 22 26 36 58 24 56 26 62 29 91 0 8 4 12 7 8
4 -3 13 1 22 9 19 20 4 35 -37 36 -17 1 -31 5 -31 10 0 5 -10 6 -21 3 -14 -5
-19 -3 -15 4 6 9 -130 81 -154 81 -5 0 -19 -10 -31 -22z m19 -12 c-7 -8 -15
-12 -17 -11 -5 6 10 25 20 25 5 0 4 -6 -3 -14z m49 8 c-3 -3 -12 -4 -19 -1 -8
3 -5 6 6 6 11 1 17 -2 13 -5z m85 -48 c16 -12 16 -14 -6 -24 -21 -9 -23 -8
-23 14 0 27 5 29 29 10z m35 -32 c-3 -3 -12 -4 -19 -1 -8 3 -5 6 6 6 11 1 17
-2 13 -5z m45 -36 c-8 -8 -9 -4 -5 13 4 13 8 18 11 10 2 -7 -1 -18 -6 -23z
m-279 -33 c-3 -9 -8 -14 -10 -11 -3 3 -2 9 2 15 9 16 15 13 8 -4z m278 -25 c9
13 10 13 6 0 -2 -8 -10 -15 -17 -15 -7 0 -15 7 -17 15 -4 13 -3 13 6 0 10 -13
12 -13 22 0z m-324 -32 c-3 -8 -6 -5 -6 6 -1 11 2 17 5 13 3 -3 4 -12 1 -19z
m273 -48 c8 -5 11 -10 5 -10 -5 0 -17 5 -25 10 -8 5 -10 10 -5 10 6 0 17 -5
25 -10z m-304 -35 c0 -25 -3 -31 -9 -20 -7 13 -2 55 7 55 1 0 2 -16 2 -35z
m818 -26 c-3 -5 -10 -9 -15 -9 -6 0 -7 5 -4 10 3 6 -3 10 -13 10 -11 0 -25 7
-32 15 -10 12 -5 11 29 -2 22 -9 38 -20 35 -24z m-297 -1 c-3 -7 -5 -2 -5 12
0 14 2 19 5 13 2 -7 2 -19 0 -25z m-264 -88 c3 -11 1 -18 -4 -14 -5 3 -9 12
-9 20 0 20 7 17 13 -6z m852 -30 c3 -5 -1 -10 -9 -10 -9 0 -16 5 -16 10 0 6 4
10 9 10 6 0 13 -4 16 -10z m-625 -15 c0 -8 -7 -15 -15 -15 -13 0 -14 3 -3 15
16 18 18 18 18 0z m596 -23 c-4 -3 -14 2 -24 12 -16 18 -16 18 6 6 13 -6 21
-14 18 -18z m-636 -2 c0 -5 -7 -10 -16 -10 -8 0 -12 5 -9 10 3 6 10 10 16 10
5 0 9 -4 9 -10z m-603 -92 c-3 -8 -6 -5 -6 6 -1 11 2 17 5 13 3 -3 4 -12 1
-19z m1503 12 c0 -5 -2 -10 -4 -10 -3 0 -8 5 -11 10 -3 6 -1 10 4 10 6 0 11
-4 11 -10z m-1038 -110 c22 -23 29 -37 24 -53 -3 -12 -6 -32 -6 -45 0 -15 -4
-21 -12 -16 -7 4 -8 3 -4 -5 4 -6 2 -18 -4 -26 -9 -11 -9 -15 -1 -15 6 0 11
-5 11 -12 0 -6 -3 -9 -6 -5 -7 7 -34 -17 -34 -31 0 -5 -7 -23 -15 -40 -9 -17
-18 -47 -20 -67 l-5 -37 22 29 c13 15 28 35 33 44 6 9 25 35 43 59 31 42 42
67 22 55 -5 -3 -10 -1 -10 5 0 7 7 9 17 6 19 -8 57 29 47 46 -5 7 -3 8 5 3 12
-7 55 28 45 38 -3 2 7 8 21 11 14 4 23 10 20 15 -2 5 2 12 11 15 10 4 13 2 8
-7 -5 -8 -2 -7 9 2 9 7 17 10 17 6 0 -5 9 0 20 10 18 16 20 16 15 2 -6 -13 -2
-15 19 -11 14 2 26 0 26 -6 0 -5 6 -10 14 -10 8 0 21 -9 29 -20 8 -11 17 -17
20 -14 4 4 2 -9 -3 -27 -5 -19 -21 -44 -35 -56 -25 -22 -35 -40 -15 -28 16 10
12 -21 -5 -35 -10 -9 -15 -9 -15 -1 0 6 5 11 11 11 5 0 7 5 4 10 -10 17 -25
11 -57 -22 -17 -18 -27 -26 -23 -18 4 8 -2 6 -14 -6 -12 -11 -23 -30 -24 -41
0 -13 -7 -19 -17 -16 -8 2 -28 -10 -44 -26 -17 -17 -26 -31 -22 -31 5 0 -2 -9
-15 -20 -13 -10 -20 -19 -16 -20 15 0 66 30 93 55 15 14 31 25 36 25 5 0 6 4
3 10 -3 6 1 7 9 4 9 -4 16 -1 16 6 0 7 7 10 16 6 16 -6 104 29 104 42 0 5 -5
13 -10 18 -7 7 -4 10 12 9 13 -1 29 2 36 8 8 6 12 6 12 -2 0 -10 -13 -15 -32
-12 -5 0 -8 -5 -8 -13 0 -11 8 -11 49 0 60 15 152 20 170 9 8 -4 17 -2 22 6 7
11 9 11 9 1 0 -7 5 -10 12 -6 7 4 8 3 4 -4 -4 -7 -3 -12 3 -12 6 0 8 -7 4 -16
-5 -15 -7 -15 -15 0 -12 22 -32 21 -23 -1 10 -25 10 -28 -10 -90 -4 -13 -18
-24 -36 -28 -16 -4 -31 -11 -34 -16 -4 -5 -19 -9 -36 -9 -16 0 -29 -4 -29 -10
0 -5 -7 -7 -15 -4 -8 4 -23 3 -32 -1 -10 -5 -22 -9 -28 -10 -5 -1 -13 -3 -17
-5 -5 -1 -11 -3 -15 -5 -34 -9 -44 -18 -31 -27 9 -7 8 -9 -7 -5 -28 6 -51 -19
-24 -26 10 -3 19 -1 19 4 0 5 4 9 10 9 5 0 7 -7 4 -15 -4 -10 0 -15 13 -15 10
0 23 -4 29 -9 5 -5 26 -14 47 -21 20 -6 37 -16 37 -21 0 -5 6 -9 13 -9 7 0 25
-14 40 -31 15 -18 27 -25 28 -18 1 8 4 3 8 -11 4 -14 13 -24 19 -23 6 2 9 -4
6 -11 -3 -8 3 -19 14 -25 11 -6 23 -22 26 -37 4 -14 14 -38 24 -52 18 -28 19
-33 28 -147 5 -61 3 -89 -9 -118 -11 -24 -12 -37 -5 -37 6 0 8 -3 5 -7 -4 -3
-16 2 -27 12 -18 16 -20 16 -20 2 0 -10 -4 -17 -10 -17 -5 0 -7 6 -4 14 4 10
-1 14 -18 12 -23 -2 -59 28 -67 55 -2 8 -9 37 -15 64 -6 28 -13 52 -16 55 -3
3 -6 16 -8 29 -4 35 -32 66 -45 49 -6 -9 -7 -4 -3 12 4 19 -1 30 -20 45 -14
11 -38 31 -52 45 -15 14 -38 27 -52 28 -14 2 -29 8 -35 13 -11 11 -148 12
-159 2 -4 -5 -11 -8 -14 -9 -53 -6 -109 -57 -82 -74 8 -5 7 -9 -5 -13 -9 -4
-13 -3 -10 2 3 5 1 12 -4 15 -5 3 -12 -1 -15 -10 -3 -8 -11 -12 -16 -9 -6 4
-15 -7 -21 -24 -6 -17 -16 -31 -22 -31 -6 0 -7 -3 -4 -7 4 -3 3 -11 -2 -17
-14 -18 -22 -48 -11 -41 6 3 10 -1 10 -10 0 -10 -5 -13 -12 -9 -6 4 -8 3 -4
-4 3 -6 2 -13 -4 -17 -13 -8 -13 -55 0 -55 6 0 10 -6 10 -14 0 -8 7 -16 15
-20 8 -3 14 -13 14 -23 -1 -17 -2 -17 -6 0 -2 9 -9 17 -15 17 -6 0 -8 -10 -4
-22 3 -13 6 -28 6 -35 0 -7 12 -19 26 -26 17 -9 23 -17 16 -21 -16 -9 19 -44
37 -38 8 3 12 1 8 -5 -3 -5 6 -22 22 -37 22 -21 30 -24 34 -13 3 9 -1 14 -11
13 -9 0 -16 5 -15 12 2 6 -2 12 -7 12 -6 0 -10 10 -10 23 0 19 3 17 16 -10 9
-18 20 -31 24 -28 4 2 18 -7 30 -20 26 -28 21 -35 -6 -8 -13 13 -16 14 -12 3
8 -26 51 -40 123 -40 60 0 80 5 142 36 40 20 73 38 73 41 0 3 -8 2 -17 -2 -14
-5 -15 -4 -6 6 10 10 15 9 28 -1 9 -7 15 -8 15 -2 0 6 8 9 18 7 9 -2 17 -4 17
-5 0 -1 10 -3 23 -6 17 -3 21 0 16 8 -4 7 -4 10 0 6 4 -3 8 -10 8 -15 0 -4 8
-13 18 -20 12 -8 16 -21 12 -39 -3 -19 -1 -25 7 -20 6 4 9 11 6 16 -3 5 -1 11
5 15 5 3 10 1 10 -5 0 -6 4 -8 10 -5 6 3 7 -1 4 -9 -3 -9 -9 -14 -13 -12 -3 2
-11 -2 -18 -9 -10 -11 -10 -15 0 -18 7 -4 6 -6 -4 -6 -21 -1 -53 -37 -44 -50
3 -6 0 -9 -8 -5 -8 3 -20 -2 -27 -11 -7 -8 -19 -15 -26 -15 -8 0 -14 -5 -14
-12 0 -6 -3 -8 -6 -5 -4 4 -20 -3 -35 -14 -18 -12 -51 -22 -86 -25 -32 -2 -67
-7 -78 -10 -11 -3 -28 -8 -39 -11 -13 -4 -16 -1 -11 7 6 9 -1 11 -28 8 -20 -2
-34 -1 -31 3 2 4 -15 10 -39 14 -50 10 -43 7 -91 28 -47 21 -57 21 -32 2 11
-8 15 -15 8 -15 -7 0 -17 9 -24 20 -7 11 -16 20 -21 20 -4 0 -5 -5 -1 -12 4
-7 3 -8 -5 -4 -6 4 -18 4 -24 -1 -7 -4 -4 0 8 11 20 18 20 19 1 30 -10 6 -28
21 -39 34 -11 12 -25 22 -31 22 -6 0 -5 -5 2 -12 7 -7 12 -17 12 -23 0 -5 -4
-4 -9 4 -8 12 -12 12 -25 2 -11 -9 -16 -10 -16 -2 0 6 4 11 9 11 13 0 21 39 9
47 -6 3 -8 2 -5 -3 3 -6 1 -16 -4 -24 -7 -11 -8 -7 -5 13 6 37 -25 92 -42 75
-9 -9 -12 -8 -12 5 0 9 4 17 9 17 5 0 4 11 -2 24 -7 13 -16 22 -21 19 -5 -4
-6 -1 -2 5 3 6 -1 37 -10 69 -10 32 -17 70 -17 85 0 15 -4 25 -8 22 -5 -3 -7
14 -4 38 2 24 7 95 10 158 8 145 14 191 43 318 6 25 6 44 1 48 -5 3 -6 17 -3
31 5 20 4 24 -6 18 -9 -5 -11 -4 -6 3 4 7 14 12 22 12 9 0 12 -5 8 -12 -4 -6
-3 -8 4 -5 5 4 9 15 8 25 -2 9 0 19 4 22 15 10 22 50 8 50 -8 1 -6 6 6 15 11
8 16 20 12 30 -3 9 -2 14 3 11 5 -3 11 3 14 14 3 13 1 18 -5 13 -6 -3 -8 -1
-4 5 3 6 2 13 -3 16 -11 7 9 56 23 56 4 0 1 -11 -8 -24 -10 -16 -12 -27 -6
-31 6 -3 13 2 16 12 25 74 50 133 58 133 4 0 2 8 -5 17 -8 9 -9 14 -4 11 6 -4
26 -3 45 2 55 13 60 12 92 -20z m298 11 c0 -5 10 -12 23 -14 21 -4 21 -4 1 -6
-12 0 -27 6 -34 14 -9 10 -9 15 -1 15 6 0 11 -4 11 -9z m-63 -17 c-3 -3 -12
-4 -19 -1 -8 3 -5 6 6 6 11 1 17 -2 13 -5z m853 -88 c0 -11 -19 -15 -25 -6 -3
5 1 10 9 10 9 0 16 -2 16 -4z m405 -6 c8 -13 -5 -13 -25 0 -13 8 -13 10 2 10
9 0 20 -4 23 -10z m40 -10 c-3 -5 0 -10 7 -11 7 0 4 -4 -7 -9 -32 -14 -36 -11
-18 10 18 21 28 27 18 10z m-518 -92 c-3 -7 -5 -2 -5 12 0 14 2 19 5 13 2 -7
2 -19 0 -25z m-990 0 c-3 -8 -6 -5 -6 6 -1 11 2 17 5 13 3 -3 4 -12 1 -19z
m-654 -3 c-3 -9 -8 -14 -10 -11 -3 3 -2 9 2 15 9 16 15 13 8 -4z m633 -27
c-19 -13 -24 -9 -19 11 4 16 8 17 18 8 9 -9 10 -14 1 -19z m-656 -4 c0 -8 -6
-14 -14 -14 -9 0 -12 7 -9 20 6 22 23 18 23 -6z m950 -4 c0 -5 -4 -10 -10 -10
-5 0 -10 5 -10 10 0 6 5 10 10 10 6 0 10 -4 10 -10z m54 -8 c2 -4 -4 -9 -15
-9 -11 -1 -17 2 -14 8 7 11 22 12 29 1z m-382 -24 c-7 -7 -12 -8 -12 -2 0 14
12 26 19 19 2 -3 -1 -11 -7 -17z m268 -9 c0 -5 -4 -9 -8 -9 -5 0 -9 7 -9 15 0
8 4 12 9 9 4 -3 8 -9 8 -15z m50 11 c12 -8 9 -9 -12 -8 -15 1 -24 6 -22 10 7
10 16 10 34 -2z m1205 1 c3 -5 1 -12 -5 -16 -5 -3 -10 1 -10 9 0 18 6 21 15 7z
m-198 -23 c-3 -8 -6 -5 -6 6 -1 11 2 17 5 13 3 -3 4 -12 1 -19z m188 -17 c-6
-5 -25 10 -25 20 0 5 6 4 14 -3 8 -7 12 -15 11 -17z m-1527 5 c-7 -8 -15 -12
-17 -11 -5 6 10 25 20 25 5 0 4 -6 -3 -14z m689 -33 c-3 -10 -5 -4 -5 12 0 17
2 24 5 18 2 -7 2 -21 0 -30z m-452 17 c3 -5 2 -10 -4 -10 -5 0 -13 5 -16 10
-3 6 -2 10 4 10 5 0 13 -4 16 -10z m1285 -4 c0 -3 -4 -8 -10 -11 -5 -3 -10 -1
-10 4 0 6 5 11 10 11 6 0 10 -2 10 -4z m-1320 -31 c-7 -9 -15 -13 -18 -10 -3
2 1 11 8 20 7 9 15 13 18 10 3 -2 -1 -11 -8 -20z m965 5 c-3 -5 -18 -10 -33
-9 l-27 1 25 8 c35 11 42 11 35 0z m63 -7 c-10 -2 -26 -2 -35 0 -10 3 -2 5 17
5 19 0 27 -2 18 -5z m-1903 -13 c3 -5 2 -10 -4 -10 -5 0 -13 5 -16 10 -3 6 -2
10 4 10 5 0 13 -4 16 -10z m1878 -7 c-7 -2 -21 -2 -30 0 -10 3 -4 5 12 5 17 0
24 -2 18 -5z m-599 -37 c-10 -8 -21 -12 -24 -10 -5 6 21 24 34 24 6 0 1 -6
-10 -14z m-846 -37 c-3 -8 -7 -3 -11 10 -4 17 -3 21 5 13 5 -5 8 -16 6 -23z
m717 1 c3 -5 -1 -10 -9 -10 -9 0 -16 5 -16 10 0 6 4 10 9 10 6 0 13 -4 16 -10z
m-1225 -29 c-5 -11 -15 -23 -21 -27 -6 -3 -3 5 6 20 20 30 30 35 15 7z m1192
-31 c16 -14 18 -20 7 -20 -8 0 -20 9 -27 20 -7 11 -10 20 -7 20 3 0 15 -9 27
-20z m-1212 -16 c0 -8 -19 -13 -24 -6 -3 5 1 9 9 9 8 0 15 -2 15 -3z m1310
-35 c0 -5 -4 -9 -8 -9 -5 0 -9 7 -9 15 0 8 4 12 9 9 4 -3 8 -9 8 -15z m-1376
-64 c-13 -36 -14 -37 -12 -10 3 25 18 57 25 51 1 -1 -4 -20 -13 -41z m2199 -8
c12 -12 20 -37 13 -37 -2 0 -11 11 -20 25 -17 26 -13 34 7 12z m-2239 -46 c3
-5 -1 -11 -9 -14 -9 -4 -12 -1 -8 9 6 16 10 17 17 5z m2237 -5 c14 8 11 -2 -4
-14 -10 -8 -13 -6 -14 11 0 12 1 16 4 9 3 -6 9 -10 14 -6z m-1076 -6 c-3 -5
-13 -10 -21 -10 -8 0 -12 5 -9 10 3 6 13 10 21 10 8 0 12 -4 9 -10z m-170 -30
c-9 -16 -23 -30 -32 -30 -14 0 -14 3 3 23 18 21 36 37 42 37 1 0 -4 -13 -13
-30z m108 23 c-7 -2 -19 -2 -25 0 -7 3 -2 5 12 5 14 0 19 -2 13 -5z m-526 -25
c-3 -8 -6 -5 -6 6 -1 11 2 17 5 13 3 -3 4 -12 1 -19z m690 -40 c-3 -8 -6 -5
-6 6 -1 11 2 17 5 13 3 -3 4 -12 1 -19z m-690 -20 c-3 -7 -5 -2 -5 12 0 14 2
19 5 13 2 -7 2 -19 0 -25z m1003 12 c0 -5 -4 -10 -10 -10 -5 0 -10 5 -10 10 0
6 5 10 10 10 6 0 10 -4 10 -10z m600 -30 c0 -5 -2 -10 -4 -10 -3 0 -8 5 -11
10 -3 6 -1 10 4 10 6 0 11 -4 11 -10z m-2240 -34 c0 -3 -4 -8 -10 -11 -5 -3
-10 -1 -10 4 0 6 5 11 10 11 6 0 10 -2 10 -4z m617 -28 c-3 -8 -6 -5 -6 6 -1
11 2 17 5 13 3 -3 4 -12 1 -19z m300 2 c-3 -21 -17 -40 -17 -22 0 13 11 42 16
42 2 0 3 -9 1 -20z m523 17 c0 -2 -9 -12 -20 -22 -24 -21 -27 -14 -4 9 15 15
24 20 24 13z m-8 -83 c-9 -16 -10 -14 -9 8 1 15 6 23 11 18 4 -4 4 -16 -2 -26z
m-825 -6 c-3 -8 -6 -5 -6 6 -1 11 2 17 5 13 3 -3 4 -12 1 -19z m304 9 c-6 -8
-8 -17 -4 -20 8 -8 -16 -37 -31 -37 -6 0 -2 7 8 15 11 8 17 18 13 21 -7 7 10
34 20 34 3 0 0 -6 -6 -13z m1259 -37 c0 -5 -5 -10 -11 -10 -5 0 -7 5 -4 10 3
6 8 10 11 10 2 0 4 -4 4 -10z m-1532 -46 c-3 -14 -5 -12 -10 9 -3 19 -2 25 4
19 6 -6 8 -18 6 -28z m273 9 c-8 -15 -10 -15 -11 -2 0 17 10 32 18 25 2 -3 -1
-13 -7 -23z m-304 -15 c-3 -7 -5 -2 -5 12 0 14 2 19 5 13 2 -7 2 -19 0 -25z
m896 -52 c4 -10 1 -13 -8 -9 -8 3 -12 9 -9 14 7 12 11 11 17 -5z m-586 -28
c-3 -8 -6 -5 -6 6 -1 11 2 17 5 13 3 -3 4 -12 1 -19z m40 -14 c-3 -3 -12 -4
-19 -1 -8 3 -5 6 6 6 11 1 17 -2 13 -5z m13 -34 c0 -5 -2 -10 -4 -10 -3 0 -8
5 -11 10 -3 6 -1 10 4 10 6 0 11 -4 11 -10z m1120 -30 c0 -5 -4 -10 -10 -10
-5 0 -10 5 -10 10 0 6 5 10 10 10 6 0 10 -4 10 -10z m-750 -24 c0 -3 -4 -8
-10 -11 -5 -3 -10 -1 -10 4 0 6 5 11 10 11 6 0 10 -2 10 -4z m191 -23 c13 -16
12 -17 -3 -4 -17 13 -22 21 -14 21 2 0 10 -8 17 -17z m-794 -25 c-3 -8 -6 -5
-6 6 -1 11 2 17 5 13 3 -3 4 -12 1 -19z m-50 -10 c-3 -8 -6 -5 -6 6 -1 11 2
17 5 13 3 -3 4 -12 1 -19z m583 18 c0 -3 -4 -8 -10 -11 -5 -3 -10 -1 -10 4 0
6 5 11 10 11 6 0 10 -2 10 -4z m-415 -125 c3 -5 1 -12 -5 -16 -5 -3 -10 1 -10
9 0 18 6 21 15 7z m599 -43 c-3 -5 -10 -6 -15 -3 -5 4 -9 1 -9 -5 0 -6 -5 -8
-11 -4 -8 5 -8 8 0 14 16 9 41 8 35 -2z m516 -25 c-11 -17 -11 -17 -6 0 3 10
6 24 7 30 0 9 2 9 5 0 3 -7 0 -20 -6 -30z m-1810 -3 c0 -5 -5 -10 -11 -10 -5
0 -7 5 -4 10 3 6 8 10 11 10 2 0 4 -4 4 -10z m73 -11 c20 -1 20 -2 -3 -8 -14
-4 -27 -4 -28 1 -2 4 -8 6 -13 2 -5 -3 -9 0 -9 6 0 7 7 9 16 6 9 -3 25 -6 37
-7z m884 -52 c-11 -4 -25 -6 -31 -3 -6 2 -3 5 7 5 9 1 17 8 17 16 0 13 2 14
14 3 12 -11 11 -14 -7 -21z m128 23 c-3 -5 -12 -10 -18 -10 -7 0 -6 4 3 10 19
12 23 12 15 0z m72 4 c-3 -3 -12 -4 -19 -1 -8 3 -5 6 6 6 11 1 17 -2 13 -5z
m-277 -24 c0 -5 -4 -10 -9 -10 -6 0 -13 5 -16 10 -3 6 1 10 9 10 9 0 16 -4 16
-10z m140 6 c0 -2 -7 -7 -16 -10 -8 -3 -12 -2 -9 4 6 10 25 14 25 6z m140 0
c0 -2 -7 -7 -16 -10 -8 -3 -12 -2 -9 4 6 10 25 14 25 6z m-53 -12 c-3 -3 -12
-4 -19 -1 -8 3 -5 6 6 6 11 1 17 -2 13 -5z m-907 -8 c0 -2 -7 -7 -16 -10 -8
-3 -12 -2 -9 4 6 10 25 14 25 6z m1547 -61 c0 -8 -4 -15 -9 -15 -4 0 -8 7 -8
15 0 8 4 15 8 15 5 0 9 -7 9 -15z m-1310 -32 c0 -9 -4 -10 -14 -2 -7 6 -13 12
-13 14 0 1 6 2 13 2 8 0 14 -6 14 -14z m1237 -120 c-4 -16 -13 -34 -20 -41 -9
-7 -10 -8 -4 0 6 7 10 22 10 33 0 20 8 35 17 35 2 0 0 -12 -3 -27z m-1029 7
c3 -5 -1 -10 -9 -10 -8 0 -18 5 -21 10 -3 6 1 10 9 10 8 0 18 -4 21 -10z m271
-132 l19 -23 -25 20 c-14 11 -27 21 -29 22 -2 2 0 3 6 3 5 0 18 -10 29 -22z
m78 13 c3 -5 -3 -11 -15 -14 -16 -4 -18 -3 -8 9 13 16 16 17 23 5z m626 5 c0
-3 -4 -8 -10 -11 -5 -3 -10 -1 -10 4 0 6 5 11 10 11 6 0 10 -2 10 -4z m-502
-90 c-7 -8 -15 -12 -17 -11 -5 6 10 25 20 25 5 0 4 -6 -3 -14z m39 -18 c-3 -8
-6 -5 -6 6 -1 11 2 17 5 13 3 -3 4 -12 1 -19z m126 -63 c3 -6 -7 -11 -22 -12
-14 -1 -20 1 -13 4 6 2 10 8 8 12 -3 4 1 8 9 8 8 0 16 -5 18 -12z m235 -120
c-3 -3 -9 2 -12 12 -6 14 -5 15 5 6 7 -7 10 -15 7 -18z"/>
<path d="M995 1799 c-4 -6 -5 -12 -2 -15 2 -3 7 2 10 11 7 17 1 20 -8 4z"/>
<path d="M2424 2238 c-11 -25 -7 -58 6 -58 5 0 7 7 4 15 -4 8 -1 22 6 31 9 10
10 18 3 25 -6 6 -13 2 -19 -13z"/>
<path d="M3495 2241 c-18 -7 -18 -9 -3 -12 15 -3 14 -6 -6 -15 -22 -10 -24 -9
-21 8 4 17 0 19 -18 14 -12 -3 -32 -6 -44 -6 -13 0 -23 -5 -23 -11 0 -5 5 -7
10 -4 6 3 10 1 10 -4 0 -6 -7 -11 -15 -11 -8 0 -15 4 -15 9 0 6 -23 0 -50 -11
-48 -20 -51 -23 -45 -52 4 -27 4 -28 -5 -8 -5 12 -17 22 -26 22 -14 0 -15 -2
-3 -17 13 -15 11 -16 -12 -10 -23 6 -34 0 -70 -38 -24 -25 -44 -49 -44 -54 0
-5 -4 -13 -9 -18 -5 -5 -6 -3 -2 5 4 6 2 12 -3 12 -6 0 -11 -9 -11 -21 0 -14
5 -19 14 -16 10 4 13 1 9 -9 -4 -10 -9 -12 -18 -4 -14 11 -48 3 -40 -10 3 -5
1 -11 -5 -15 -9 -6 -52 -80 -56 -97 -1 -5 -2 -20 -3 -34 0 -14 -5 -23 -10 -20
-16 11 -24 -28 -28 -139 -4 -137 4 -222 20 -206 15 15 32 14 20 -1 -12 -17
-15 -68 -4 -68 5 0 12 8 14 18 2 9 5 4 5 -13 0 -35 4 -55 15 -73 5 -6 14 -23
20 -36 10 -19 15 -21 25 -9 10 10 10 13 -3 13 -8 0 -15 3 -15 8 0 4 11 7 23 7
19 0 23 -5 20 -20 -4 -20 -4 -20 11 -1 17 21 22 11 7 -13 -5 -7 -14 -10 -20
-7 -6 4 -11 0 -11 -8 0 -9 5 -16 11 -16 5 0 8 -4 5 -8 -6 -11 57 -82 73 -82
14 0 14 6 1 31 -8 13 -7 19 0 19 6 0 8 4 5 10 -3 5 -2 10 3 10 6 0 9 -18 8
-40 -2 -31 3 -45 21 -62 13 -12 23 -17 23 -12 0 5 5 1 11 -8 5 -10 21 -18 34
-18 14 0 25 -5 25 -11 0 -5 4 -8 9 -5 5 3 14 -1 21 -9 7 -8 16 -12 21 -9 5 3
19 -2 31 -10 12 -9 35 -16 50 -16 15 0 48 -5 73 -12 34 -9 62 -9 117 -1 99 16
106 18 115 28 4 4 2 5 -6 0 -10 -6 -12 -4 -7 4 6 9 11 9 22 0 17 -14 19 2 2
21 -11 12 -10 12 4 2 19 -15 67 -6 86 17 8 9 11 11 8 4 -4 -7 1 -9 14 -6 11 3
20 9 20 13 0 4 9 10 21 13 12 3 18 10 15 15 -3 5 8 15 24 22 24 10 28 15 19
26 -13 16 -4 48 10 39 6 -3 7 -13 4 -22 -4 -11 -2 -14 8 -11 8 3 13 12 11 21
-1 8 3 19 9 23 8 4 9 3 5 -4 -4 -7 0 -12 10 -12 10 0 14 3 11 7 -4 3 2 12 13
20 25 18 82 131 73 146 -3 5 -2 7 4 4 13 -8 32 29 35 67 2 24 -2 31 -22 37
l-25 7 25 1 24 1 -24 17 c-14 10 -28 18 -32 18 -3 0 -10 3 -14 8 -11 11 -84 9
-84 -3 0 -5 10 -11 23 -11 20 -1 20 -2 2 -6 -11 -3 -27 -10 -35 -17 -13 -9
-13 -9 -3 5 18 22 5 31 -18 11 -12 -10 -15 -18 -8 -23 6 -3 2 -8 -9 -11 -15
-4 -19 -2 -15 8 10 26 -4 14 -29 -23 -24 -37 -27 -63 -6 -63 6 0 5 8 -3 18
-13 15 -12 16 3 3 20 -15 14 -35 -8 -27 -17 6 -91 -60 -80 -71 4 -4 12 -1 17
7 9 13 10 13 6 0 -2 -9 -16 -15 -32 -15 -16 -1 -30 -6 -33 -13 -2 -7 -8 -10
-13 -6 -5 3 -9 1 -9 -4 0 -5 -10 -12 -22 -15 -18 -5 -19 -8 -8 -21 15 -19 16
-18 -37 -20 -23 -2 -40 1 -37 5 2 5 12 5 21 2 11 -4 14 -3 9 5 -4 7 -17 10
-29 8 -12 -3 -48 -5 -80 -5 -32 -1 -56 -5 -53 -10 4 -5 -2 -8 -11 -7 -9 2 -19
8 -21 14 -2 7 -8 12 -13 12 -6 0 -7 -5 -3 -12 4 -7 3 -8 -4 -4 -7 4 -12 1 -12
-6 0 -9 -3 -9 -10 2 -9 13 -10 13 -10 0 0 -12 -2 -12 -9 -2 -4 7 -19 11 -32 9
-13 -2 -18 -2 -11 0 10 4 9 8 -5 19 -17 14 -17 14 3 5 31 -15 74 -21 74 -10 0
5 -7 9 -15 9 -17 0 -126 60 -110 60 11 0 -15 20 -27 20 -4 0 -5 -9 -3 -20 2
-11 0 -18 -5 -15 -5 3 -7 15 -5 26 7 33 -13 62 -37 56 -15 -4 -18 -3 -11 4 11
11 5 27 -22 69 -22 35 -31 198 -14 258 7 26 12 50 11 55 -1 4 2 7 8 7 5 0 7 8
3 18 -3 9 -3 14 2 10 8 -8 51 44 61 75 4 9 14 17 24 17 10 0 20 6 23 13 3 6
32 23 66 37 33 14 61 28 61 31 0 8 182 9 195 1 5 -4 17 -8 25 -10 8 -1 22 -4
30 -7 8 -2 24 -4 35 -5 13 -1 15 -4 7 -7 -10 -4 -7 -9 10 -17 16 -9 28 -9 40
-2 13 8 21 7 30 -2 11 -11 10 -12 -3 -7 -19 7 -34 -9 -24 -25 5 -8 11 -7 20 0
11 9 13 8 10 -7 -2 -12 8 -31 26 -48 29 -27 30 -27 45 -9 11 14 11 10 -2 -16
-16 -32 -16 -34 0 -21 14 12 16 12 10 -2 -6 -17 24 -70 36 -62 4 3 13 -2 20
-10 8 -10 31 -15 65 -15 59 0 123 26 106 43 -7 7 -15 6 -26 -3 -8 -7 -15 -9
-15 -4 0 5 -5 2 -11 -6 -9 -13 -10 -13 -6 0 2 8 9 15 16 15 6 0 15 5 19 11 4
6 14 10 23 9 14 -2 15 3 8 29 -21 84 -22 85 -49 61 -17 -16 -18 -11 -11 48 1
5 6 5 12 1 7 -4 3 8 -7 26 -10 18 -27 38 -36 44 -10 6 -18 18 -18 27 0 17 -72
89 -89 89 -5 0 -12 -6 -15 -12 -3 -7 -3 -2 0 11 4 16 3 21 -5 17 -6 -4 -11 -2
-11 5 0 6 -8 9 -20 6 -11 -3 -18 -1 -15 3 7 11 -30 32 -39 23 -3 -3 -6 -2 -6
4 0 10 -145 63 -170 63 -5 0 -7 -6 -4 -14 4 -11 0 -13 -17 -9 -13 4 -18 8 -11
11 7 2 10 8 6 13 -6 11 -121 11 -149 0z m234 -37 c14 -12 -19 -1 -35 12 -18
14 -18 14 6 3 14 -6 27 -13 29 -15z m141 -63 c7 -15 7 -19 -5 -17 -8 1 -18 6
-22 11 -5 4 -2 5 6 0 11 -6 13 -4 8 8 -9 23 0 21 13 -2z m-693 -73 c-3 -7 -5
-2 -5 12 0 14 2 19 5 13 2 -7 2 -19 0 -25z m804 -1 c-12 -12 -41 -2 -41 14 0
8 5 7 17 -2 15 -12 16 -12 10 5 -6 16 -5 17 8 6 10 -9 12 -17 6 -23z m-824
-11 c0 -8 -6 -12 -15 -9 -11 5 -11 7 0 14 7 5 13 9 14 9 0 0 1 -6 1 -14z m820
-12 c-3 -3 -12 -4 -19 -1 -8 3 -5 6 6 6 11 1 17 -2 13 -5z m-394 -13 c33 -1
57 -5 57 -12 0 -5 -4 -8 -9 -4 -5 3 -48 6 -96 6 -47 1 -87 5 -90 8 -2 4 15 6
38 5 23 -1 68 -2 100 -3z m97 5 c0 -2 -7 -7 -16 -10 -8 -3 -12 -2 -9 4 6 10
25 14 25 6z m-280 -10 c0 -2 -9 -6 -20 -9 -11 -3 -18 -1 -14 4 5 9 34 13 34 5z
m630 -10 c0 -3 -4 -8 -10 -11 -5 -3 -10 -1 -10 4 0 6 5 11 10 11 6 0 10 -2 10
-4z m-600 -19 c-14 -8 -27 -12 -30 -10 -7 6 23 23 40 23 8 0 4 -6 -10 -13z
m298 6 c-10 -2 -26 -2 -35 0 -10 3 -2 5 17 5 19 0 27 -2 18 -5z m-343 -13 c-3
-5 -11 -10 -16 -10 -6 0 -7 5 -4 10 3 6 11 10 16 10 6 0 7 -4 4 -10z m685 -22
c0 -5 -9 -4 -20 2 -11 6 -20 12 -20 14 0 2 9 2 20 -1 11 -3 20 -9 20 -15z
m-752 -22 c-7 -8 -15 -12 -17 -11 -5 6 10 25 20 25 5 0 4 -6 -3 -14z m-287
-89 c-10 -9 -11 -8 -5 6 3 10 9 15 12 12 3 -3 0 -11 -7 -18z m193 -7 c-10 -16
-20 -28 -22 -26 -4 5 28 56 35 56 2 0 -4 -13 -13 -30z m906 -23 c0 -5 -4 -5
-10 -2 -5 3 -10 14 -10 23 0 15 2 15 10 2 5 -8 10 -19 10 -23z m-20 -23 c0 -8
-5 -12 -10 -9 -6 4 -8 11 -5 16 9 14 15 11 15 -7z m-910 -10 c0 -8 -19 -13
-24 -6 -3 5 1 9 9 9 8 0 15 -2 15 -3z m750 -6 c0 7 5 10 11 6 7 -4 7 -10 1
-16 -12 -12 -32 -2 -32 15 0 7 4 6 10 -3 7 -11 10 -11 10 -2z m50 -18 c0 -5
-8 -10 -17 -10 -15 0 -16 2 -3 10 19 12 20 12 20 0z m-833 -132 c-3 -7 -5 -2
-5 12 0 14 2 19 5 13 2 -7 2 -19 0 -25z m920 -143 c0 -8 -4 -15 -8 -15 -11 0
-20 16 -12 24 11 11 20 7 20 -9z m-1055 -57 c-8 -8 -9 -4 -5 13 4 13 8 18 11
10 2 -7 -1 -18 -6 -23z m198 -9 c0 -18 -18 -9 -23 12 -4 16 -3 18 9 8 8 -6 14
-15 14 -20z m877 -11 c-3 -8 -6 -5 -6 6 -1 11 2 17 5 13 3 -3 4 -12 1 -19z
m-1067 -27 c0 -4 -6 -8 -14 -8 -8 0 -12 6 -9 14 5 13 23 9 23 -6z m1058 -26
c-3 -3 -9 2 -12 12 -6 14 -5 15 5 6 7 -7 10 -15 7 -18z m-222 -12 c-10 -10
-19 5 -10 18 6 11 8 11 12 0 2 -7 1 -15 -2 -18z m-839 -5 c-3 -8 -6 -5 -6 6
-1 11 2 17 5 13 3 -3 4 -12 1 -19z m986 -43 c-3 -9 -8 -14 -10 -11 -3 3 -2 9
2 15 9 16 15 13 8 -4z m17 -26 c-7 -11 -14 -18 -17 -15 -3 3 0 12 7 21 18 21
23 19 10 -6z m-290 -19 c6 -11 8 -20 6 -20 -3 0 -10 9 -16 20 -6 11 -8 20 -6
20 3 0 10 -9 16 -20z m-615 -38 c-3 -3 -11 0 -18 7 -9 10 -8 11 6 5 10 -3 15
-9 12 -12z m828 11 c-7 -2 -19 -2 -25 0 -7 3 -2 5 12 5 14 0 19 -2 13 -5z
m-812 -40 c13 -16 12 -17 -3 -4 -17 13 -22 21 -14 21 2 0 10 -8 17 -17z m789
-22 c0 -6 -4 -13 -10 -16 -5 -3 -10 1 -10 9 0 9 5 16 10 16 6 0 10 -4 10 -9z
m-684 -26 c11 -8 14 -15 7 -15 -23 0 -28 2 -25 12 2 6 -6 8 -18 5 -11 -3 -18
-1 -14 4 8 13 28 11 50 -6z m599 6 c3 -5 1 -12 -5 -16 -5 -3 -10 1 -10 9 0 18
6 21 15 7z m50 -1 c3 -6 -1 -7 -9 -4 -18 7 -21 14 -7 14 6 0 13 -4 16 -10z
m-5 -28 c-8 -3 -20 -9 -27 -14 -7 -6 -14 -5 -19 3 -4 8 -3 9 4 5 7 -4 12 -1
12 7 0 11 7 13 22 9 16 -4 18 -7 8 -10z m-625 -12 c-3 -5 -12 -10 -18 -10 -7
0 -6 4 3 10 19 12 23 12 15 0z m443 -47 c-6 -7 -16 -13 -22 -13 -6 0 -4 5 4
10 10 6 -3 8 -40 6 -47 -3 -49 -3 -15 3 61 12 86 9 73 -6z m-201 1 c-3 -3 -12
-4 -19 -1 -8 3 -5 6 6 6 11 1 17 -2 13 -5z m-18 -20 c2 -2 -14 -4 -37 -4 -22
0 -43 4 -46 9 -6 8 73 3 83 -5z m174 -1 c-7 -2 -21 -2 -30 0 -10 3 -4 5 12 5
17 0 24 -2 18 -5z m-90 -20 c-13 -2 -33 -2 -45 0 -13 2 -3 4 22 4 25 0 35 -2
23 -4z"/>
<path d="M4310 2222 c0 -1 10 -6 22 -11 l22 -8 -22 -5 c-12 -4 -20 -2 -16 3
11 18 -33 8 -51 -11 -10 -11 -14 -20 -9 -20 5 0 3 -4 -5 -9 -9 -6 -14 -27 -14
-56 0 -38 4 -51 24 -67 13 -11 18 -16 10 -12 -9 5 -12 3 -7 -4 9 -15 43 -16
51 -2 3 6 -2 10 -11 10 -10 0 -15 3 -11 6 3 4 14 4 23 0 13 -5 14 -9 4 -21
-17 -21 -11 -25 38 -27 37 -1 48 4 82 38 33 33 40 46 40 79 0 47 -19 90 -40
90 -8 1 -14 6 -12 13 3 16 -11 15 -27 0 -10 -11 -11 -10 -6 2 4 13 -3 15 -40
15 -25 0 -45 -1 -45 -3z m150 -53 c0 -5 -4 -7 -10 -4 -5 3 -10 1 -10 -5 0 -6
7 -13 15 -16 8 -4 12 -10 10 -15 -3 -4 -15 1 -26 12 -11 11 -17 24 -14 29 8
13 35 13 35 -1z m-167 -24 c-3 -9 -8 -14 -10 -11 -3 3 -2 9 2 15 9 16 15 13 8
-4z m-36 -29 c-7 -14 -13 -23 -15 -21 -7 6 9 45 18 45 4 0 3 -11 -3 -24z m158
-86 c-3 -5 -12 -10 -18 -10 -7 0 -6 4 3 10 19 12 23 12 15 0z"/>
<path d="M680 2146 c0 -2 7 -6 15 -10 8 -3 15 -1 15 4 0 6 -7 10 -15 10 -8 0
-15 -2 -15 -4z"/>
<path d="M4093 1905 c0 -8 4 -12 9 -9 4 3 8 9 8 15 0 5 -4 9 -8 9 -5 0 -9 -7
-9 -15z"/>
<path d="M4290 1902 c-19 -2 -38 -9 -42 -15 -11 -17 -9 -807 2 -807 6 0 10 -5
10 -11 0 -5 -5 -7 -12 -3 -6 4 -8 3 -5 -3 4 -6 46 -11 93 -12 72 -2 85 0 76
11 -9 11 -6 14 14 16 25 2 34 -13 12 -21 -7 -2 -1 -4 15 -4 l27 0 0 406 c0
223 -4 412 -8 418 -4 7 -18 11 -30 8 -12 -2 -22 0 -22 5 0 5 12 11 28 13 32 5
-106 4 -158 -1z m44 -10 c2 -4 -7 -8 -22 -9 -24 -2 -24 -1 -7 7 11 5 21 9 22
9 1 1 4 -3 7 -7z m40 0 c3 -5 -1 -9 -9 -9 -8 0 -12 4 -9 9 3 4 7 8 9 8 2 0 6
-4 9 -8z m31 -2 c3 -5 1 -10 -4 -10 -6 0 -11 5 -11 10 0 6 2 10 4 10 3 0 8 -4
11 -10z m53 -141 c-3 -33 -4 -33 -8 8 -3 23 -2 39 3 34 5 -5 7 -24 5 -42z m2
-599 c0 -5 -4 -10 -10 -10 -5 0 -10 5 -10 10 0 6 5 10 10 10 6 0 10 -4 10 -10z
m-159 -88 c-7 -2 -18 1 -23 6 -8 8 -4 9 13 5 13 -4 18 -8 10 -11z m79 14 c0
-9 -39 -13 -51 -5 -10 6 -4 9 19 9 17 0 32 -2 32 -4z"/>
<path d="M5641 1894 c0 -11 3 -14 6 -6 3 7 2 16 -1 19 -3 4 -6 -2 -5 -13z"/>
<path d="M5643 1820 c0 -30 2 -43 4 -27 2 15 2 39 0 55 -2 15 -4 2 -4 -28z"/>
<path d="M5889 1833 c-13 -16 -12 -17 4 -4 16 13 21 21 13 21 -2 0 -10 -8 -17
-17z"/>
<path d="M7013 1690 c0 -41 2 -58 4 -37 2 20 2 54 0 75 -2 20 -4 3 -4 -38z"/>
<path d="M6431 1730 c14 -31 19 -36 19 -24 0 6 -7 19 -16 30 -14 18 -14 18 -3
-6z"/>
<path d="M6656 1704 c-4 -14 -5 -28 -3 -31 3 -2 8 8 11 23 4 14 5 28 3 31 -3
2 -8 -8 -11 -23z"/>
<path d="M5796 1695 c-9 -26 -7 -32 5 -12 6 10 9 21 6 23 -2 3 -7 -2 -11 -11z"/>
<path d="M6451 1680 c0 -8 4 -22 9 -30 12 -18 12 -2 0 25 -6 13 -9 15 -9 5z"/>
<path d="M5776 1645 c-3 -9 -6 -24 -5 -33 0 -9 5 -4 10 12 9 32 6 48 -5 21z"/>
<path d="M6478 1394 c1 -126 4 -240 6 -254 2 -14 3 72 4 190 0 118 -2 233 -6
254 -4 22 -6 -64 -4 -190z"/>
<path d="M6138 1593 c7 -3 16 -2 19 1 4 3 -2 6 -13 5 -11 0 -14 -3 -6 -6z"/>
<path d="M6045 1559 c-4 -6 -5 -12 -2 -15 2 -3 7 2 10 11 7 17 1 20 -8 4z"/>
<path d="M6634 1475 c0 -49 1 -71 3 -48 2 23 2 64 0 90 -2 26 -3 8 -3 -42z"/>
<path d="M7321 1524 c1 -21 5 -50 9 -64 5 -16 6 -2 3 35 -7 69 -13 86 -12 29z"/>
<path d="M6026 1445 c3 -22 10 -44 14 -49 5 -5 5 8 -1 30 -15 57 -20 64 -13
19z"/>
<path d="M5772 1340 c0 -14 2 -19 5 -12 2 6 2 18 0 25 -3 6 -5 1 -5 -13z"/>
<path d="M212 1303 c-8 -14 -9 -24 -2 -28 6 -4 7 -12 4 -18 -5 -9 -4 -9 5 -1
7 6 11 24 9 40 -3 29 -3 29 -16 7z"/>
<path d="M3680 1271 c0 -5 7 -12 16 -15 24 -9 27 -7 10 9 -17 17 -26 19 -26 6z"/>
<path d="M6633 1120 c0 -36 2 -50 4 -32 2 17 2 47 0 65 -2 17 -4 3 -4 -33z"/>
<path d="M6892 1100 c0 -19 2 -27 5 -17 2 9 2 25 0 35 -3 9 -5 1 -5 -18z"/>
<path d="M6694 704 c-18 -14 -18 -15 4 -4 12 6 22 13 22 15 0 8 -5 6 -26 -11z"/>
<path d="M4100 669 c-27 -37 -19 -52 9 -18 18 22 28 49 17 49 -3 0 -14 -14
-26 -31z"/>
<path d="M5530 691 c0 -7 -4 -10 -8 -7 -5 3 -9 -2 -9 -10 0 -13 2 -13 16 0 8
9 12 19 8 22 -4 4 -7 2 -7 -5z"/>
<path d="M7115 660 c-16 -16 -26 -32 -23 -35 3 -3 17 10 32 30 33 43 29 45 -9
5z"/>
<path d="M4600 659 c-11 -19 -10 -20 9 -9 12 6 21 15 21 20 0 18 -19 11 -30
-11z"/>
<path d="M5026 657 c-11 -8 -17 -19 -15 -24 2 -6 12 0 22 13 20 27 19 30 -7
11z"/>
<path d="M6045 640 c-27 -30 -12 -34 15 -5 13 14 19 25 13 25 -5 0 -18 -9 -28
-20z"/>
<path d="M5485 640 c-3 -5 -1 -10 4 -10 6 0 11 5 11 10 0 6 -2 10 -4 10 -3 0
-8 -4 -11 -10z"/>
<path d="M4540 631 c0 -6 4 -13 10 -16 6 -3 7 1 4 9 -7 18 -14 21 -14 7z"/>
<path d="M6526 625 c4 -8 8 -15 10 -15 2 0 4 7 4 15 0 8 -4 15 -10 15 -5 0 -7
-7 -4 -15z"/>
<path d="M6855 631 c-3 -5 -1 -12 5 -16 5 -3 10 1 10 9 0 18 -6 21 -15 7z"/>
<path d="M956 499 c3 -5 10 -7 15 -4 5 4 9 1 9 -4 0 -6 5 -11 12 -11 9 0 9 3
0 12 -14 14 -44 20 -36 7z"/>
</g>
</svg>
